<?xml version="1.0" encoding="UTF-8" standalone="yes"?>
<!DOCTYPE svg PUBLIC "-//W3C//DTD SVG 1.0//EN" "http://www.w3.org/TR/2001/REC-SVG-20010904/DTD/svg10.dtd">
<svg width="490" height="490" xmlns="http://www.w3.org/2000/svg" xmlns:xlink="http://www.w3.org/1999/xlink">
<g id="quickmark" fill="black" transform="translate(40,40)">
<rect x="0" y="0" width="10" height="10"/>
<rect x="10" y="0" width="10" height="10"/>
<rect x="20" y="0" width="10" height="10"/>
<rect x="30" y="0" width="10" height="10"/>
<rect x="40" y="0" width="10" height="10"/>
<rect x="50" y="0" width="10" height="10"/>
<rect x="60" y="0" width="10" height="10"/>
<rect x="80" y="0" width="10" height="10"/>
<rect x="90" y="0" width="10" height="10"/>
<rect x="100" y="0" width="10" height="10"/>
<rect x="110" y="0" width="10" height="10"/>
<rect x="120" y="0" width="10" height="10"/>
<rect x="130" y="0" width="10" height="10"/>
<rect x="140" y="0" width="10" height="10"/>
<rect x="160" y="0" width="10" height="10"/>
<rect x="170" y="0" width="10" height="10"/>
<rect x="180" y="0" width="10" height="10"/>
<rect x="190" y="0" width="10" height="10"/>
<rect x="260" y="0" width="10" height="10"/>
<rect x="280" y="0" width="10" height="10"/>
<rect x="290" y="0" width="10" height="10"/>
<rect x="310" y="0" width="10" height="10"/>
<rect x="340" y="0" width="10" height="10"/>
<rect x="350" y="0" width="10" height="10"/>
<rect x="360" y="0" width="10" height="10"/>
<rect x="370" y="0" width="10" height="10"/>
<rect x="380" y="0" width="10" height="10"/>
<rect x="390" y="0" width="10" height="10"/>
<rect x="400" y="0" width="10" height="10"/>
<rect x="0" y="10" width="10" height="10"/>
<rect x="60" y="10" width="10" height="10"/>
<rect x="80" y="10" width="10" height="10"/>
<rect x="100" y="10" width="10" height="10"/>
<rect x="160" y="10" width="10" height="10"/>
<rect x="180" y="10" width="10" height="10"/>
<rect x="220" y="10" width="10" height="10"/>
<rect x="230" y="10" width="10" height="10"/>
<rect x="240" y="10" width="10" height="10"/>
<rect x="290" y="10" width="10" height="10"/>
<rect x="320" y="10" width="10" height="10"/>
<rect x="340" y="10" width="10" height="10"/>
<rect x="400" y="10" width="10" height="10"/>
<rect x="0" y="20" width="10" height="10"/>
<rect x="20" y="20" width="10" height="10"/>
<rect x="30" y="20" width="10" height="10"/>
<rect x="40" y="20" width="10" height="10"/>
<rect x="60" y="20" width="10" height="10"/>
<rect x="90" y="20" width="10" height="10"/>
<rect x="100" y="20" width="10" height="10"/>
<rect x="110" y="20" width="10" height="10"/>
<rect x="120" y="20" width="10" height="10"/>
<rect x="130" y="20" width="10" height="10"/>
<rect x="140" y="20" width="10" height="10"/>
<rect x="150" y="20" width="10" height="10"/>
<rect x="170" y="20" width="10" height="10"/>
<rect x="190" y="20" width="10" height="10"/>
<rect x="250" y="20" width="10" height="10"/>
<rect x="260" y="20" width="10" height="10"/>
<rect x="270" y="20" width="10" height="10"/>
<rect x="300" y="20" width="10" height="10"/>
<rect x="310" y="20" width="10" height="10"/>
<rect x="340" y="20" width="10" height="10"/>
<rect x="360" y="20" width="10" height="10"/>
<rect x="370" y="20" width="10" height="10"/>
<rect x="380" y="20" width="10" height="10"/>
<rect x="400" y="20" width="10" height="10"/>
<rect x="0" y="30" width="10" height="10"/>
<rect x="20" y="30" width="10" height="10"/>
<rect x="30" y="30" width="10" height="10"/>
<rect x="40" y="30" width="10" height="10"/>
<rect x="60" y="30" width="10" height="10"/>
<rect x="80" y="30" width="10" height="10"/>
<rect x="90" y="30" width="10" height="10"/>
<rect x="100" y="30" width="10" height="10"/>
<rect x="120" y="30" width="10" height="10"/>
<rect x="140" y="30" width="10" height="10"/>
<rect x="160" y="30" width="10" height="10"/>
<rect x="190" y="30" width="10" height="10"/>
<rect x="200" y="30" width="10" height="10"/>
<rect x="210" y="30" width="10" height="10"/>
<rect x="230" y="30" width="10" height="10"/>
<rect x="250" y="30" width="10" height="10"/>
<rect x="260" y="30" width="10" height="10"/>
<rect x="270" y="30" width="10" height="10"/>
<rect x="340" y="30" width="10" height="10"/>
<rect x="360" y="30" width="10" height="10"/>
<rect x="370" y="30" width="10" height="10"/>
<rect x="380" y="30" width="10" height="10"/>
<rect x="400" y="30" width="10" height="10"/>
<rect x="0" y="40" width="10" height="10"/>
<rect x="20" y="40" width="10" height="10"/>
<rect x="30" y="40" width="10" height="10"/>
<rect x="40" y="40" width="10" height="10"/>
<rect x="60" y="40" width="10" height="10"/>
<rect x="90" y="40" width="10" height="10"/>
<rect x="100" y="40" width="10" height="10"/>
<rect x="110" y="40" width="10" height="10"/>
<rect x="130" y="40" width="10" height="10"/>
<rect x="160" y="40" width="10" height="10"/>
<rect x="190" y="40" width="10" height="10"/>
<rect x="230" y="40" width="10" height="10"/>
<rect x="240" y="40" width="10" height="10"/>
<rect x="280" y="40" width="10" height="10"/>
<rect x="290" y="40" width="10" height="10"/>
<rect x="340" y="40" width="10" height="10"/>
<rect x="360" y="40" width="10" height="10"/>
<rect x="370" y="40" width="10" height="10"/>
<rect x="380" y="40" width="10" height="10"/>
<rect x="400" y="40" width="10" height="10"/>
<rect x="0" y="50" width="10" height="10"/>
<rect x="60" y="50" width="10" height="10"/>
<rect x="120" y="50" width="10" height="10"/>
<rect x="130" y="50" width="10" height="10"/>
<rect x="140" y="50" width="10" height="10"/>
<rect x="160" y="50" width="10" height="10"/>
<rect x="170" y="50" width="10" height="10"/>
<rect x="180" y="50" width="10" height="10"/>
<rect x="190" y="50" width="10" height="10"/>
<rect x="260" y="50" width="10" height="10"/>
<rect x="300" y="50" width="10" height="10"/>
<rect x="310" y="50" width="10" height="10"/>
<rect x="320" y="50" width="10" height="10"/>
<rect x="340" y="50" width="10" height="10"/>
<rect x="400" y="50" width="10" height="10"/>
<rect x="0" y="60" width="10" height="10"/>
<rect x="10" y="60" width="10" height="10"/>
<rect x="20" y="60" width="10" height="10"/>
<rect x="30" y="60" width="10" height="10"/>
<rect x="40" y="60" width="10" height="10"/>
<rect x="50" y="60" width="10" height="10"/>
<rect x="60" y="60" width="10" height="10"/>
<rect x="80" y="60" width="10" height="10"/>
<rect x="100" y="60" width="10" height="10"/>
<rect x="120" y="60" width="10" height="10"/>
<rect x="140" y="60" width="10" height="10"/>
<rect x="160" y="60" width="10" height="10"/>
<rect x="180" y="60" width="10" height="10"/>
<rect x="200" y="60" width="10" height="10"/>
<rect x="220" y="60" width="10" height="10"/>
<rect x="240" y="60" width="10" height="10"/>
<rect x="260" y="60" width="10" height="10"/>
<rect x="280" y="60" width="10" height="10"/>
<rect x="300" y="60" width="10" height="10"/>
<rect x="320" y="60" width="10" height="10"/>
<rect x="340" y="60" width="10" height="10"/>
<rect x="350" y="60" width="10" height="10"/>
<rect x="360" y="60" width="10" height="10"/>
<rect x="370" y="60" width="10" height="10"/>
<rect x="380" y="60" width="10" height="10"/>
<rect x="390" y="60" width="10" height="10"/>
<rect x="400" y="60" width="10" height="10"/>
<rect x="80" y="70" width="10" height="10"/>
<rect x="130" y="70" width="10" height="10"/>
<rect x="150" y="70" width="10" height="10"/>
<rect x="160" y="70" width="10" height="10"/>
<rect x="170" y="70" width="10" height="10"/>
<rect x="180" y="70" width="10" height="10"/>
<rect x="190" y="70" width="10" height="10"/>
<rect x="200" y="70" width="10" height="10"/>
<rect x="220" y="70" width="10" height="10"/>
<rect x="230" y="70" width="10" height="10"/>
<rect x="290" y="70" width="10" height="10"/>
<rect x="320" y="70" width="10" height="10"/>
<rect x="0" y="80" width="10" height="10"/>
<rect x="20" y="80" width="10" height="10"/>
<rect x="30" y="80" width="10" height="10"/>
<rect x="50" y="80" width="10" height="10"/>
<rect x="60" y="80" width="10" height="10"/>
<rect x="70" y="80" width="10" height="10"/>
<rect x="90" y="80" width="10" height="10"/>
<rect x="100" y="80" width="10" height="10"/>
<rect x="110" y="80" width="10" height="10"/>
<rect x="130" y="80" width="10" height="10"/>
<rect x="140" y="80" width="10" height="10"/>
<rect x="160" y="80" width="10" height="10"/>
<rect x="170" y="80" width="10" height="10"/>
<rect x="180" y="80" width="10" height="10"/>
<rect x="190" y="80" width="10" height="10"/>
<rect x="210" y="80" width="10" height="10"/>
<rect x="220" y="80" width="10" height="10"/>
<rect x="230" y="80" width="10" height="10"/>
<rect x="260" y="80" width="10" height="10"/>
<rect x="280" y="80" width="10" height="10"/>
<rect x="290" y="80" width="10" height="10"/>
<rect x="300" y="80" width="10" height="10"/>
<rect x="310" y="80" width="10" height="10"/>
<rect x="340" y="80" width="10" height="10"/>
<rect x="370" y="80" width="10" height="10"/>
<rect x="390" y="80" width="10" height="10"/>
<rect x="400" y="80" width="10" height="10"/>
<rect x="10" y="90" width="10" height="10"/>
<rect x="40" y="90" width="10" height="10"/>
<rect x="70" y="90" width="10" height="10"/>
<rect x="80" y="90" width="10" height="10"/>
<rect x="100" y="90" width="10" height="10"/>
<rect x="110" y="90" width="10" height="10"/>
<rect x="130" y="90" width="10" height="10"/>
<rect x="140" y="90" width="10" height="10"/>
<rect x="150" y="90" width="10" height="10"/>
<rect x="180" y="90" width="10" height="10"/>
<rect x="190" y="90" width="10" height="10"/>
<rect x="230" y="90" width="10" height="10"/>
<rect x="250" y="90" width="10" height="10"/>
<rect x="280" y="90" width="10" height="10"/>
<rect x="300" y="90" width="10" height="10"/>
<rect x="310" y="90" width="10" height="10"/>
<rect x="320" y="90" width="10" height="10"/>
<rect x="330" y="90" width="10" height="10"/>
<rect x="340" y="90" width="10" height="10"/>
<rect x="350" y="90" width="10" height="10"/>
<rect x="360" y="90" width="10" height="10"/>
<rect x="380" y="90" width="10" height="10"/>
<rect x="390" y="90" width="10" height="10"/>
<rect x="400" y="90" width="10" height="10"/>
<rect x="0" y="100" width="10" height="10"/>
<rect x="60" y="100" width="10" height="10"/>
<rect x="90" y="100" width="10" height="10"/>
<rect x="150" y="100" width="10" height="10"/>
<rect x="170" y="100" width="10" height="10"/>
<rect x="180" y="100" width="10" height="10"/>
<rect x="230" y="100" width="10" height="10"/>
<rect x="300" y="100" width="10" height="10"/>
<rect x="330" y="100" width="10" height="10"/>
<rect x="350" y="100" width="10" height="10"/>
<rect x="380" y="100" width="10" height="10"/>
<rect x="390" y="100" width="10" height="10"/>
<rect x="10" y="110" width="10" height="10"/>
<rect x="30" y="110" width="10" height="10"/>
<rect x="40" y="110" width="10" height="10"/>
<rect x="70" y="110" width="10" height="10"/>
<rect x="80" y="110" width="10" height="10"/>
<rect x="100" y="110" width="10" height="10"/>
<rect x="110" y="110" width="10" height="10"/>
<rect x="130" y="110" width="10" height="10"/>
<rect x="140" y="110" width="10" height="10"/>
<rect x="160" y="110" width="10" height="10"/>
<rect x="190" y="110" width="10" height="10"/>
<rect x="200" y="110" width="10" height="10"/>
<rect x="220" y="110" width="10" height="10"/>
<rect x="240" y="110" width="10" height="10"/>
<rect x="250" y="110" width="10" height="10"/>
<rect x="270" y="110" width="10" height="10"/>
<rect x="320" y="110" width="10" height="10"/>
<rect x="330" y="110" width="10" height="10"/>
<rect x="340" y="110" width="10" height="10"/>
<rect x="350" y="110" width="10" height="10"/>
<rect x="360" y="110" width="10" height="10"/>
<rect x="390" y="110" width="10" height="10"/>
<rect x="400" y="110" width="10" height="10"/>
<rect x="30" y="120" width="10" height="10"/>
<rect x="40" y="120" width="10" height="10"/>
<rect x="50" y="120" width="10" height="10"/>
<rect x="60" y="120" width="10" height="10"/>
<rect x="90" y="120" width="10" height="10"/>
<rect x="100" y="120" width="10" height="10"/>
<rect x="150" y="120" width="10" height="10"/>
<rect x="170" y="120" width="10" height="10"/>
<rect x="190" y="120" width="10" height="10"/>
<rect x="200" y="120" width="10" height="10"/>
<rect x="230" y="120" width="10" height="10"/>
<rect x="240" y="120" width="10" height="10"/>
<rect x="260" y="120" width="10" height="10"/>
<rect x="310" y="120" width="10" height="10"/>
<rect x="320" y="120" width="10" height="10"/>
<rect x="330" y="120" width="10" height="10"/>
<rect x="370" y="120" width="10" height="10"/>
<rect x="380" y="120" width="10" height="10"/>
<rect x="390" y="120" width="10" height="10"/>
<rect x="400" y="120" width="10" height="10"/>
<rect x="30" y="130" width="10" height="10"/>
<rect x="40" y="130" width="10" height="10"/>
<rect x="90" y="130" width="10" height="10"/>
<rect x="100" y="130" width="10" height="10"/>
<rect x="110" y="130" width="10" height="10"/>
<rect x="130" y="130" width="10" height="10"/>
<rect x="150" y="130" width="10" height="10"/>
<rect x="180" y="130" width="10" height="10"/>
<rect x="200" y="130" width="10" height="10"/>
<rect x="210" y="130" width="10" height="10"/>
<rect x="220" y="130" width="10" height="10"/>
<rect x="240" y="130" width="10" height="10"/>
<rect x="250" y="130" width="10" height="10"/>
<rect x="270" y="130" width="10" height="10"/>
<rect x="280" y="130" width="10" height="10"/>
<rect x="290" y="130" width="10" height="10"/>
<rect x="310" y="130" width="10" height="10"/>
<rect x="330" y="130" width="10" height="10"/>
<rect x="340" y="130" width="10" height="10"/>
<rect x="350" y="130" width="10" height="10"/>
<rect x="370" y="130" width="10" height="10"/>
<rect x="20" y="140" width="10" height="10"/>
<rect x="30" y="140" width="10" height="10"/>
<rect x="50" y="140" width="10" height="10"/>
<rect x="60" y="140" width="10" height="10"/>
<rect x="70" y="140" width="10" height="10"/>
<rect x="100" y="140" width="10" height="10"/>
<rect x="110" y="140" width="10" height="10"/>
<rect x="120" y="140" width="10" height="10"/>
<rect x="130" y="140" width="10" height="10"/>
<rect x="140" y="140" width="10" height="10"/>
<rect x="160" y="140" width="10" height="10"/>
<rect x="180" y="140" width="10" height="10"/>
<rect x="190" y="140" width="10" height="10"/>
<rect x="200" y="140" width="10" height="10"/>
<rect x="210" y="140" width="10" height="10"/>
<rect x="220" y="140" width="10" height="10"/>
<rect x="310" y="140" width="10" height="10"/>
<rect x="340" y="140" width="10" height="10"/>
<rect x="390" y="140" width="10" height="10"/>
<rect x="400" y="140" width="10" height="10"/>
<rect x="20" y="150" width="10" height="10"/>
<rect x="50" y="150" width="10" height="10"/>
<rect x="100" y="150" width="10" height="10"/>
<rect x="120" y="150" width="10" height="10"/>
<rect x="140" y="150" width="10" height="10"/>
<rect x="210" y="150" width="10" height="10"/>
<rect x="230" y="150" width="10" height="10"/>
<rect x="240" y="150" width="10" height="10"/>
<rect x="270" y="150" width="10" height="10"/>
<rect x="300" y="150" width="10" height="10"/>
<rect x="340" y="150" width="10" height="10"/>
<rect x="350" y="150" width="10" height="10"/>
<rect x="360" y="150" width="10" height="10"/>
<rect x="370" y="150" width="10" height="10"/>
<rect x="390" y="150" width="10" height="10"/>
<rect x="30" y="160" width="10" height="10"/>
<rect x="50" y="160" width="10" height="10"/>
<rect x="60" y="160" width="10" height="10"/>
<rect x="70" y="160" width="10" height="10"/>
<rect x="80" y="160" width="10" height="10"/>
<rect x="90" y="160" width="10" height="10"/>
<rect x="100" y="160" width="10" height="10"/>
<rect x="110" y="160" width="10" height="10"/>
<rect x="160" y="160" width="10" height="10"/>
<rect x="170" y="160" width="10" height="10"/>
<rect x="180" y="160" width="10" height="10"/>
<rect x="200" y="160" width="10" height="10"/>
<rect x="220" y="160" width="10" height="10"/>
<rect x="230" y="160" width="10" height="10"/>
<rect x="250" y="160" width="10" height="10"/>
<rect x="270" y="160" width="10" height="10"/>
<rect x="280" y="160" width="10" height="10"/>
<rect x="290" y="160" width="10" height="10"/>
<rect x="300" y="160" width="10" height="10"/>
<rect x="310" y="160" width="10" height="10"/>
<rect x="360" y="160" width="10" height="10"/>
<rect x="370" y="160" width="10" height="10"/>
<rect x="400" y="160" width="10" height="10"/>
<rect x="0" y="170" width="10" height="10"/>
<rect x="20" y="170" width="10" height="10"/>
<rect x="100" y="170" width="10" height="10"/>
<rect x="160" y="170" width="10" height="10"/>
<rect x="200" y="170" width="10" height="10"/>
<rect x="210" y="170" width="10" height="10"/>
<rect x="220" y="170" width="10" height="10"/>
<rect x="230" y="170" width="10" height="10"/>
<rect x="240" y="170" width="10" height="10"/>
<rect x="250" y="170" width="10" height="10"/>
<rect x="310" y="170" width="10" height="10"/>
<rect x="320" y="170" width="10" height="10"/>
<rect x="330" y="170" width="10" height="10"/>
<rect x="350" y="170" width="10" height="10"/>
<rect x="0" y="180" width="10" height="10"/>
<rect x="10" y="180" width="10" height="10"/>
<rect x="30" y="180" width="10" height="10"/>
<rect x="50" y="180" width="10" height="10"/>
<rect x="60" y="180" width="10" height="10"/>
<rect x="70" y="180" width="10" height="10"/>
<rect x="80" y="180" width="10" height="10"/>
<rect x="100" y="180" width="10" height="10"/>
<rect x="110" y="180" width="10" height="10"/>
<rect x="120" y="180" width="10" height="10"/>
<rect x="130" y="180" width="10" height="10"/>
<rect x="140" y="180" width="10" height="10"/>
<rect x="160" y="180" width="10" height="10"/>
<rect x="180" y="180" width="10" height="10"/>
<rect x="220" y="180" width="10" height="10"/>
<rect x="250" y="180" width="10" height="10"/>
<rect x="260" y="180" width="10" height="10"/>
<rect x="270" y="180" width="10" height="10"/>
<rect x="280" y="180" width="10" height="10"/>
<rect x="300" y="180" width="10" height="10"/>
<rect x="320" y="180" width="10" height="10"/>
<rect x="340" y="180" width="10" height="10"/>
<rect x="360" y="180" width="10" height="10"/>
<rect x="370" y="180" width="10" height="10"/>
<rect x="30" y="190" width="10" height="10"/>
<rect x="40" y="190" width="10" height="10"/>
<rect x="50" y="190" width="10" height="10"/>
<rect x="90" y="190" width="10" height="10"/>
<rect x="120" y="190" width="10" height="10"/>
<rect x="130" y="190" width="10" height="10"/>
<rect x="140" y="190" width="10" height="10"/>
<rect x="170" y="190" width="10" height="10"/>
<rect x="180" y="190" width="10" height="10"/>
<rect x="190" y="190" width="10" height="10"/>
<rect x="210" y="190" width="10" height="10"/>
<rect x="230" y="190" width="10" height="10"/>
<rect x="280" y="190" width="10" height="10"/>
<rect x="290" y="190" width="10" height="10"/>
<rect x="300" y="190" width="10" height="10"/>
<rect x="320" y="190" width="10" height="10"/>
<rect x="330" y="190" width="10" height="10"/>
<rect x="340" y="190" width="10" height="10"/>
<rect x="350" y="190" width="10" height="10"/>
<rect x="380" y="190" width="10" height="10"/>
<rect x="400" y="190" width="10" height="10"/>
<rect x="0" y="200" width="10" height="10"/>
<rect x="10" y="200" width="10" height="10"/>
<rect x="20" y="200" width="10" height="10"/>
<rect x="50" y="200" width="10" height="10"/>
<rect x="60" y="200" width="10" height="10"/>
<rect x="70" y="200" width="10" height="10"/>
<rect x="80" y="200" width="10" height="10"/>
<rect x="90" y="200" width="10" height="10"/>
<rect x="100" y="200" width="10" height="10"/>
<rect x="120" y="200" width="10" height="10"/>
<rect x="150" y="200" width="10" height="10"/>
<rect x="160" y="200" width="10" height="10"/>
<rect x="240" y="200" width="10" height="10"/>
<rect x="260" y="200" width="10" height="10"/>
<rect x="270" y="200" width="10" height="10"/>
<rect x="290" y="200" width="10" height="10"/>
<rect x="310" y="200" width="10" height="10"/>
<rect x="320" y="200" width="10" height="10"/>
<rect x="330" y="200" width="10" height="10"/>
<rect x="340" y="200" width="10" height="10"/>
<rect x="350" y="200" width="10" height="10"/>
<rect x="360" y="200" width="10" height="10"/>
<rect x="380" y="200" width="10" height="10"/>
<rect x="400" y="200" width="10" height="10"/>
<rect x="10" y="210" width="10" height="10"/>
<rect x="20" y="210" width="10" height="10"/>
<rect x="40" y="210" width="10" height="10"/>
<rect x="50" y="210" width="10" height="10"/>
<rect x="80" y="210" width="10" height="10"/>
<rect x="120" y="210" width="10" height="10"/>
<rect x="140" y="210" width="10" height="10"/>
<rect x="160" y="210" width="10" height="10"/>
<rect x="190" y="210" width="10" height="10"/>
<rect x="200" y="210" width="10" height="10"/>
<rect x="250" y="210" width="10" height="10"/>
<rect x="270" y="210" width="10" height="10"/>
<rect x="280" y="210" width="10" height="10"/>
<rect x="290" y="210" width="10" height="10"/>
<rect x="300" y="210" width="10" height="10"/>
<rect x="310" y="210" width="10" height="10"/>
<rect x="330" y="210" width="10" height="10"/>
<rect x="340" y="210" width="10" height="10"/>
<rect x="360" y="210" width="10" height="10"/>
<rect x="370" y="210" width="10" height="10"/>
<rect x="380" y="210" width="10" height="10"/>
<rect x="390" y="210" width="10" height="10"/>
<rect x="400" y="210" width="10" height="10"/>
<rect x="0" y="220" width="10" height="10"/>
<rect x="30" y="220" width="10" height="10"/>
<rect x="40" y="220" width="10" height="10"/>
<rect x="60" y="220" width="10" height="10"/>
<rect x="80" y="220" width="10" height="10"/>
<rect x="120" y="220" width="10" height="10"/>
<rect x="130" y="220" width="10" height="10"/>
<rect x="140" y="220" width="10" height="10"/>
<rect x="150" y="220" width="10" height="10"/>
<rect x="160" y="220" width="10" height="10"/>
<rect x="180" y="220" width="10" height="10"/>
<rect x="210" y="220" width="10" height="10"/>
<rect x="220" y="220" width="10" height="10"/>
<rect x="230" y="220" width="10" height="10"/>
<rect x="250" y="220" width="10" height="10"/>
<rect x="300" y="220" width="10" height="10"/>
<rect x="330" y="220" width="10" height="10"/>
<rect x="340" y="220" width="10" height="10"/>
<rect x="350" y="220" width="10" height="10"/>
<rect x="360" y="220" width="10" height="10"/>
<rect x="370" y="220" width="10" height="10"/>
<rect x="380" y="220" width="10" height="10"/>
<rect x="390" y="220" width="10" height="10"/>
<rect x="0" y="230" width="10" height="10"/>
<rect x="20" y="230" width="10" height="10"/>
<rect x="50" y="230" width="10" height="10"/>
<rect x="70" y="230" width="10" height="10"/>
<rect x="80" y="230" width="10" height="10"/>
<rect x="90" y="230" width="10" height="10"/>
<rect x="110" y="230" width="10" height="10"/>
<rect x="190" y="230" width="10" height="10"/>
<rect x="200" y="230" width="10" height="10"/>
<rect x="220" y="230" width="10" height="10"/>
<rect x="230" y="230" width="10" height="10"/>
<rect x="240" y="230" width="10" height="10"/>
<rect x="250" y="230" width="10" height="10"/>
<rect x="260" y="230" width="10" height="10"/>
<rect x="280" y="230" width="10" height="10"/>
<rect x="300" y="230" width="10" height="10"/>
<rect x="320" y="230" width="10" height="10"/>
<rect x="360" y="230" width="10" height="10"/>
<rect x="390" y="230" width="10" height="10"/>
<rect x="0" y="240" width="10" height="10"/>
<rect x="10" y="240" width="10" height="10"/>
<rect x="20" y="240" width="10" height="10"/>
<rect x="30" y="240" width="10" height="10"/>
<rect x="50" y="240" width="10" height="10"/>
<rect x="60" y="240" width="10" height="10"/>
<rect x="80" y="240" width="10" height="10"/>
<rect x="100" y="240" width="10" height="10"/>
<rect x="110" y="240" width="10" height="10"/>
<rect x="170" y="240" width="10" height="10"/>
<rect x="190" y="240" width="10" height="10"/>
<rect x="220" y="240" width="10" height="10"/>
<rect x="230" y="240" width="10" height="10"/>
<rect x="240" y="240" width="10" height="10"/>
<rect x="250" y="240" width="10" height="10"/>
<rect x="260" y="240" width="10" height="10"/>
<rect x="270" y="240" width="10" height="10"/>
<rect x="290" y="240" width="10" height="10"/>
<rect x="310" y="240" width="10" height="10"/>
<rect x="330" y="240" width="10" height="10"/>
<rect x="360" y="240" width="10" height="10"/>
<rect x="370" y="240" width="10" height="10"/>
<rect x="390" y="240" width="10" height="10"/>
<rect x="0" y="250" width="10" height="10"/>
<rect x="10" y="250" width="10" height="10"/>
<rect x="90" y="250" width="10" height="10"/>
<rect x="110" y="250" width="10" height="10"/>
<rect x="120" y="250" width="10" height="10"/>
<rect x="140" y="250" width="10" height="10"/>
<rect x="150" y="250" width="10" height="10"/>
<rect x="160" y="250" width="10" height="10"/>
<rect x="170" y="250" width="10" height="10"/>
<rect x="190" y="250" width="10" height="10"/>
<rect x="240" y="250" width="10" height="10"/>
<rect x="260" y="250" width="10" height="10"/>
<rect x="270" y="250" width="10" height="10"/>
<rect x="290" y="250" width="10" height="10"/>
<rect x="310" y="250" width="10" height="10"/>
<rect x="320" y="250" width="10" height="10"/>
<rect x="330" y="250" width="10" height="10"/>
<rect x="340" y="250" width="10" height="10"/>
<rect x="370" y="250" width="10" height="10"/>
<rect x="380" y="250" width="10" height="10"/>
<rect x="0" y="260" width="10" height="10"/>
<rect x="30" y="260" width="10" height="10"/>
<rect x="40" y="260" width="10" height="10"/>
<rect x="50" y="260" width="10" height="10"/>
<rect x="60" y="260" width="10" height="10"/>
<rect x="70" y="260" width="10" height="10"/>
<rect x="80" y="260" width="10" height="10"/>
<rect x="110" y="260" width="10" height="10"/>
<rect x="170" y="260" width="10" height="10"/>
<rect x="190" y="260" width="10" height="10"/>
<rect x="200" y="260" width="10" height="10"/>
<rect x="240" y="260" width="10" height="10"/>
<rect x="310" y="260" width="10" height="10"/>
<rect x="320" y="260" width="10" height="10"/>
<rect x="370" y="260" width="10" height="10"/>
<rect x="390" y="260" width="10" height="10"/>
<rect x="400" y="260" width="10" height="10"/>
<rect x="20" y="270" width="10" height="10"/>
<rect x="50" y="270" width="10" height="10"/>
<rect x="70" y="270" width="10" height="10"/>
<rect x="80" y="270" width="10" height="10"/>
<rect x="100" y="270" width="10" height="10"/>
<rect x="110" y="270" width="10" height="10"/>
<rect x="140" y="270" width="10" height="10"/>
<rect x="150" y="270" width="10" height="10"/>
<rect x="160" y="270" width="10" height="10"/>
<rect x="180" y="270" width="10" height="10"/>
<rect x="190" y="270" width="10" height="10"/>
<rect x="200" y="270" width="10" height="10"/>
<rect x="210" y="270" width="10" height="10"/>
<rect x="230" y="270" width="10" height="10"/>
<rect x="260" y="270" width="10" height="10"/>
<rect x="310" y="270" width="10" height="10"/>
<rect x="320" y="270" width="10" height="10"/>
<rect x="350" y="270" width="10" height="10"/>
<rect x="360" y="270" width="10" height="10"/>
<rect x="370" y="270" width="10" height="10"/>
<rect x="390" y="270" width="10" height="10"/>
<rect x="400" y="270" width="10" height="10"/>
<rect x="0" y="280" width="10" height="10"/>
<rect x="10" y="280" width="10" height="10"/>
<rect x="20" y="280" width="10" height="10"/>
<rect x="40" y="280" width="10" height="10"/>
<rect x="60" y="280" width="10" height="10"/>
<rect x="70" y="280" width="10" height="10"/>
<rect x="110" y="280" width="10" height="10"/>
<rect x="130" y="280" width="10" height="10"/>
<rect x="160" y="280" width="10" height="10"/>
<rect x="170" y="280" width="10" height="10"/>
<rect x="180" y="280" width="10" height="10"/>
<rect x="190" y="280" width="10" height="10"/>
<rect x="200" y="280" width="10" height="10"/>
<rect x="220" y="280" width="10" height="10"/>
<rect x="230" y="280" width="10" height="10"/>
<rect x="240" y="280" width="10" height="10"/>
<rect x="250" y="280" width="10" height="10"/>
<rect x="290" y="280" width="10" height="10"/>
<rect x="300" y="280" width="10" height="10"/>
<rect x="310" y="280" width="10" height="10"/>
<rect x="330" y="280" width="10" height="10"/>
<rect x="350" y="280" width="10" height="10"/>
<rect x="360" y="280" width="10" height="10"/>
<rect x="370" y="280" width="10" height="10"/>
<rect x="10" y="290" width="10" height="10"/>
<rect x="50" y="290" width="10" height="10"/>
<rect x="90" y="290" width="10" height="10"/>
<rect x="100" y="290" width="10" height="10"/>
<rect x="110" y="290" width="10" height="10"/>
<rect x="130" y="290" width="10" height="10"/>
<rect x="150" y="290" width="10" height="10"/>
<rect x="160" y="290" width="10" height="10"/>
<rect x="170" y="290" width="10" height="10"/>
<rect x="190" y="290" width="10" height="10"/>
<rect x="200" y="290" width="10" height="10"/>
<rect x="220" y="290" width="10" height="10"/>
<rect x="230" y="290" width="10" height="10"/>
<rect x="240" y="290" width="10" height="10"/>
<rect x="270" y="290" width="10" height="10"/>
<rect x="330" y="290" width="10" height="10"/>
<rect x="350" y="290" width="10" height="10"/>
<rect x="370" y="290" width="10" height="10"/>
<rect x="400" y="290" width="10" height="10"/>
<rect x="10" y="300" width="10" height="10"/>
<rect x="30" y="300" width="10" height="10"/>
<rect x="60" y="300" width="10" height="10"/>
<rect x="70" y="300" width="10" height="10"/>
<rect x="80" y="300" width="10" height="10"/>
<rect x="120" y="300" width="10" height="10"/>
<rect x="140" y="300" width="10" height="10"/>
<rect x="150" y="300" width="10" height="10"/>
<rect x="170" y="300" width="10" height="10"/>
<rect x="180" y="300" width="10" height="10"/>
<rect x="190" y="300" width="10" height="10"/>
<rect x="270" y="300" width="10" height="10"/>
<rect x="330" y="300" width="10" height="10"/>
<rect x="340" y="300" width="10" height="10"/>
<rect x="350" y="300" width="10" height="10"/>
<rect x="370" y="300" width="10" height="10"/>
<rect x="380" y="300" width="10" height="10"/>
<rect x="0" y="310" width="10" height="10"/>
<rect x="10" y="310" width="10" height="10"/>
<rect x="70" y="310" width="10" height="10"/>
<rect x="120" y="310" width="10" height="10"/>
<rect x="160" y="310" width="10" height="10"/>
<rect x="170" y="310" width="10" height="10"/>
<rect x="180" y="310" width="10" height="10"/>
<rect x="190" y="310" width="10" height="10"/>
<rect x="240" y="310" width="10" height="10"/>
<rect x="260" y="310" width="10" height="10"/>
<rect x="270" y="310" width="10" height="10"/>
<rect x="280" y="310" width="10" height="10"/>
<rect x="290" y="310" width="10" height="10"/>
<rect x="320" y="310" width="10" height="10"/>
<rect x="340" y="310" width="10" height="10"/>
<rect x="360" y="310" width="10" height="10"/>
<rect x="380" y="310" width="10" height="10"/>
<rect x="390" y="310" width="10" height="10"/>
<rect x="400" y="310" width="10" height="10"/>
<rect x="0" y="320" width="10" height="10"/>
<rect x="40" y="320" width="10" height="10"/>
<rect x="50" y="320" width="10" height="10"/>
<rect x="60" y="320" width="10" height="10"/>
<rect x="100" y="320" width="10" height="10"/>
<rect x="130" y="320" width="10" height="10"/>
<rect x="160" y="320" width="10" height="10"/>
<rect x="170" y="320" width="10" height="10"/>
<rect x="180" y="320" width="10" height="10"/>
<rect x="230" y="320" width="10" height="10"/>
<rect x="250" y="320" width="10" height="10"/>
<rect x="260" y="320" width="10" height="10"/>
<rect x="280" y="320" width="10" height="10"/>
<rect x="300" y="320" width="10" height="10"/>
<rect x="310" y="320" width="10" height="10"/>
<rect x="320" y="320" width="10" height="10"/>
<rect x="330" y="320" width="10" height="10"/>
<rect x="340" y="320" width="10" height="10"/>
<rect x="350" y="320" width="10" height="10"/>
<rect x="360" y="320" width="10" height="10"/>
<rect x="370" y="320" width="10" height="10"/>
<rect x="380" y="320" width="10" height="10"/>
<rect x="80" y="330" width="10" height="10"/>
<rect x="90" y="330" width="10" height="10"/>
<rect x="100" y="330" width="10" height="10"/>
<rect x="110" y="330" width="10" height="10"/>
<rect x="120" y="330" width="10" height="10"/>
<rect x="130" y="330" width="10" height="10"/>
<rect x="150" y="330" width="10" height="10"/>
<rect x="160" y="330" width="10" height="10"/>
<rect x="170" y="330" width="10" height="10"/>
<rect x="180" y="330" width="10" height="10"/>
<rect x="190" y="330" width="10" height="10"/>
<rect x="200" y="330" width="10" height="10"/>
<rect x="210" y="330" width="10" height="10"/>
<rect x="220" y="330" width="10" height="10"/>
<rect x="230" y="330" width="10" height="10"/>
<rect x="280" y="330" width="10" height="10"/>
<rect x="290" y="330" width="10" height="10"/>
<rect x="310" y="330" width="10" height="10"/>
<rect x="320" y="330" width="10" height="10"/>
<rect x="360" y="330" width="10" height="10"/>
<rect x="370" y="330" width="10" height="10"/>
<rect x="400" y="330" width="10" height="10"/>
<rect x="0" y="340" width="10" height="10"/>
<rect x="10" y="340" width="10" height="10"/>
<rect x="20" y="340" width="10" height="10"/>
<rect x="30" y="340" width="10" height="10"/>
<rect x="40" y="340" width="10" height="10"/>
<rect x="50" y="340" width="10" height="10"/>
<rect x="60" y="340" width="10" height="10"/>
<rect x="80" y="340" width="10" height="10"/>
<rect x="120" y="340" width="10" height="10"/>
<rect x="140" y="340" width="10" height="10"/>
<rect x="180" y="340" width="10" height="10"/>
<rect x="230" y="340" width="10" height="10"/>
<rect x="250" y="340" width="10" height="10"/>
<rect x="300" y="340" width="10" height="10"/>
<rect x="320" y="340" width="10" height="10"/>
<rect x="340" y="340" width="10" height="10"/>
<rect x="360" y="340" width="10" height="10"/>
<rect x="370" y="340" width="10" height="10"/>
<rect x="380" y="340" width="10" height="10"/>
<rect x="390" y="340" width="10" height="10"/>
<rect x="0" y="350" width="10" height="10"/>
<rect x="60" y="350" width="10" height="10"/>
<rect x="80" y="350" width="10" height="10"/>
<rect x="100" y="350" width="10" height="10"/>
<rect x="120" y="350" width="10" height="10"/>
<rect x="130" y="350" width="10" height="10"/>
<rect x="150" y="350" width="10" height="10"/>
<rect x="170" y="350" width="10" height="10"/>
<rect x="200" y="350" width="10" height="10"/>
<rect x="230" y="350" width="10" height="10"/>
<rect x="250" y="350" width="10" height="10"/>
<rect x="270" y="350" width="10" height="10"/>
<rect x="300" y="350" width="10" height="10"/>
<rect x="320" y="350" width="10" height="10"/>
<rect x="360" y="350" width="10" height="10"/>
<rect x="390" y="350" width="10" height="10"/>
<rect x="0" y="360" width="10" height="10"/>
<rect x="20" y="360" width="10" height="10"/>
<rect x="30" y="360" width="10" height="10"/>
<rect x="40" y="360" width="10" height="10"/>
<rect x="60" y="360" width="10" height="10"/>
<rect x="90" y="360" width="10" height="10"/>
<rect x="100" y="360" width="10" height="10"/>
<rect x="110" y="360" width="10" height="10"/>
<rect x="140" y="360" width="10" height="10"/>
<rect x="160" y="360" width="10" height="10"/>
<rect x="190" y="360" width="10" height="10"/>
<rect x="210" y="360" width="10" height="10"/>
<rect x="230" y="360" width="10" height="10"/>
<rect x="240" y="360" width="10" height="10"/>
<rect x="250" y="360" width="10" height="10"/>
<rect x="260" y="360" width="10" height="10"/>
<rect x="270" y="360" width="10" height="10"/>
<rect x="280" y="360" width="10" height="10"/>
<rect x="290" y="360" width="10" height="10"/>
<rect x="320" y="360" width="10" height="10"/>
<rect x="330" y="360" width="10" height="10"/>
<rect x="340" y="360" width="10" height="10"/>
<rect x="350" y="360" width="10" height="10"/>
<rect x="360" y="360" width="10" height="10"/>
<rect x="370" y="360" width="10" height="10"/>
<rect x="380" y="360" width="10" height="10"/>
<rect x="400" y="360" width="10" height="10"/>
<rect x="0" y="370" width="10" height="10"/>
<rect x="20" y="370" width="10" height="10"/>
<rect x="30" y="370" width="10" height="10"/>
<rect x="40" y="370" width="10" height="10"/>
<rect x="60" y="370" width="10" height="10"/>
<rect x="80" y="370" width="10" height="10"/>
<rect x="90" y="370" width="10" height="10"/>
<rect x="110" y="370" width="10" height="10"/>
<rect x="130" y="370" width="10" height="10"/>
<rect x="150" y="370" width="10" height="10"/>
<rect x="160" y="370" width="10" height="10"/>
<rect x="190" y="370" width="10" height="10"/>
<rect x="220" y="370" width="10" height="10"/>
<rect x="240" y="370" width="10" height="10"/>
<rect x="250" y="370" width="10" height="10"/>
<rect x="260" y="370" width="10" height="10"/>
<rect x="270" y="370" width="10" height="10"/>
<rect x="280" y="370" width="10" height="10"/>
<rect x="290" y="370" width="10" height="10"/>
<rect x="300" y="370" width="10" height="10"/>
<rect x="320" y="370" width="10" height="10"/>
<rect x="360" y="370" width="10" height="10"/>
<rect x="370" y="370" width="10" height="10"/>
<rect x="400" y="370" width="10" height="10"/>
<rect x="0" y="380" width="10" height="10"/>
<rect x="20" y="380" width="10" height="10"/>
<rect x="30" y="380" width="10" height="10"/>
<rect x="40" y="380" width="10" height="10"/>
<rect x="60" y="380" width="10" height="10"/>
<rect x="80" y="380" width="10" height="10"/>
<rect x="120" y="380" width="10" height="10"/>
<rect x="140" y="380" width="10" height="10"/>
<rect x="180" y="380" width="10" height="10"/>
<rect x="190" y="380" width="10" height="10"/>
<rect x="200" y="380" width="10" height="10"/>
<rect x="210" y="380" width="10" height="10"/>
<rect x="220" y="380" width="10" height="10"/>
<rect x="260" y="380" width="10" height="10"/>
<rect x="290" y="380" width="10" height="10"/>
<rect x="310" y="380" width="10" height="10"/>
<rect x="320" y="380" width="10" height="10"/>
<rect x="350" y="380" width="10" height="10"/>
<rect x="380" y="380" width="10" height="10"/>
<rect x="390" y="380" width="10" height="10"/>
<rect x="400" y="380" width="10" height="10"/>
<rect x="0" y="390" width="10" height="10"/>
<rect x="60" y="390" width="10" height="10"/>
<rect x="100" y="390" width="10" height="10"/>
<rect x="120" y="390" width="10" height="10"/>
<rect x="140" y="390" width="10" height="10"/>
<rect x="150" y="390" width="10" height="10"/>
<rect x="160" y="390" width="10" height="10"/>
<rect x="170" y="390" width="10" height="10"/>
<rect x="180" y="390" width="10" height="10"/>
<rect x="200" y="390" width="10" height="10"/>
<rect x="210" y="390" width="10" height="10"/>
<rect x="220" y="390" width="10" height="10"/>
<rect x="230" y="390" width="10" height="10"/>
<rect x="260" y="390" width="10" height="10"/>
<rect x="270" y="390" width="10" height="10"/>
<rect x="320" y="390" width="10" height="10"/>
<rect x="360" y="390" width="10" height="10"/>
<rect x="370" y="390" width="10" height="10"/>
<rect x="390" y="390" width="10" height="10"/>
<rect x="0" y="400" width="10" height="10"/>
<rect x="10" y="400" width="10" height="10"/>
<rect x="20" y="400" width="10" height="10"/>
<rect x="30" y="400" width="10" height="10"/>
<rect x="40" y="400" width="10" height="10"/>
<rect x="50" y="400" width="10" height="10"/>
<rect x="60" y="400" width="10" height="10"/>
<rect x="80" y="400" width="10" height="10"/>
<rect x="90" y="400" width="10" height="10"/>
<rect x="100" y="400" width="10" height="10"/>
<rect x="120" y="400" width="10" height="10"/>
<rect x="140" y="400" width="10" height="10"/>
<rect x="150" y="400" width="10" height="10"/>
<rect x="170" y="400" width="10" height="10"/>
<rect x="200" y="400" width="10" height="10"/>
<rect x="210" y="400" width="10" height="10"/>
<rect x="220" y="400" width="10" height="10"/>
<rect x="230" y="400" width="10" height="10"/>
<rect x="250" y="400" width="10" height="10"/>
<rect x="270" y="400" width="10" height="10"/>
<rect x="280" y="400" width="10" height="10"/>
<rect x="300" y="400" width="10" height="10"/>
<rect x="320" y="400" width="10" height="10"/>
<rect x="330" y="400" width="10" height="10"/>
<rect x="370" y="400" width="10" height="10"/>
<rect x="390" y="400" width="10" height="10"/>
</g></svg>